<svg width="1024" height="997" viewBox="0 0 1024 997" fill="none" xmlns="http://www.w3.org/2000/svg">
<path d="M511.6 49.3C264.3 49.2 64 249.4 64 496.5C64 691.9 189.3 858 363.8 919C387.3 924.9 383.7 908.2 383.7 896.8V819.3C248 835.2 242.5 745.4 233.4 730.4C215 699 171.5 691 184.5 676C215.4 660.1 246.9 680 283.4 733.9C309.8 773 361.3 766.4 387.4 759.9C393.1 736.4 405.3 715.4 422.1 699.1C281.5 673.9 222.9 588.1 222.9 486.1C222.9 436.6 239.2 391.1 271.2 354.4C250.8 293.9 273.1 242.1 276.1 234.4C334.2 229.2 394.6 276 399.3 279.7C432.3 270.8 470 266.1 512.2 266.1C554.6 266.1 592.4 271 625.7 280C637 271.4 693 231.2 747 236.1C749.9 243.8 771.7 294.4 752.5 354.1C784.9 390.9 801.4 436.8 801.4 486.4C801.4 588.6 742.4 674.5 601.4 699.3C613.477 711.177 623.066 725.341 629.608 740.966C636.15 756.59 639.512 773.361 639.5 790.3V902.8C640.3 911.8 639.5 920.7 654.5 920.7C831.6 861 959.1 693.7 959.1 496.6C959.1 249.4 758.7 49.3 511.6 49.3V49.3Z" fill="black"/>
</svg>
