<svg width="390" height="743" viewBox="0 0 390 743" fill="none" xmlns="http://www.w3.org/2000/svg">
<path d="M369.038 166.346H365.192V60.9821C365.192 44.8086 358.768 29.2976 347.331 17.8612C335.895 6.42488 320.384 0 304.21 0H80.982C64.8086 0 49.2976 6.42488 37.8612 17.8612C26.4249 29.2976 20 44.8086 20 60.9821V639.018C20 655.191 26.4249 670.702 37.8612 682.139C49.2976 693.575 64.8086 700 80.982 700H304.21C320.384 700 335.895 693.575 347.331 682.139C358.768 670.702 365.192 655.191 365.192 639.018V241.346H369.038V166.346Z" fill="#3F3D56"/>
<path d="M306.671 15.8652H277.532C278.871 19.1504 279.383 22.7148 279.021 26.2442C278.659 29.7737 277.434 33.1599 275.455 36.1047C273.476 39.0494 270.803 41.4623 267.672 43.1308C264.541 44.7994 261.047 45.6723 257.499 45.6727H129.615C126.067 45.6722 122.574 44.7992 119.443 43.1306C116.312 41.462 113.639 39.0491 111.66 36.1043C109.681 33.1595 108.457 29.7733 108.095 26.2439C107.733 22.7145 108.245 19.1503 109.585 15.8652H82.3702C70.292 15.8652 58.7085 20.6632 50.1679 29.2038C41.6274 37.7443 36.8293 49.3278 36.8293 61.406V638.596C36.8299 650.674 41.6282 662.257 50.1687 670.797C58.7092 679.337 70.2923 684.135 82.3702 684.135H306.671C312.652 684.135 318.574 682.958 324.099 680.669C329.625 678.381 334.645 675.027 338.874 670.798C343.104 666.57 346.458 661.55 348.747 656.025C351.036 650.499 352.215 644.578 352.215 638.597V638.596V61.406C352.215 49.3278 347.417 37.7443 338.877 29.2038C330.336 20.6632 318.753 15.8652 306.674 15.8652H306.671Z" fill="white"/>
<path d="M303.652 127.216L195 298.864L86.3484 127.216L303.652 127.216Z" stroke="#FF8F80" stroke-width="18"/>
<path d="M257.611 165.832L181.08 243.563L145.132 143.559L257.611 165.832Z" stroke="#FF8F80" stroke-width="14"/>
<path d="M231.63 181.995L180.302 213.806L171.249 157.013L231.63 181.995Z" stroke="#FF8F80" stroke-width="8"/>
<ellipse cx="195" cy="731" rx="195" ry="12" fill="black" fill-opacity="0.07"/>
<path d="M70.4778 441.508C70.0218 441.508 69.6018 441.4 69.2178 441.184C68.8338 440.956 68.5278 440.65 68.2998 440.266C68.0838 439.882 67.9758 439.462 67.9758 439.006C67.9758 438.538 68.0838 438.112 68.2998 437.728C68.5278 437.344 68.8338 437.044 69.2178 436.828C69.6018 436.6 70.0218 436.486 70.4778 436.486C70.9458 436.486 71.3718 436.6 71.7558 436.828C72.1518 437.044 72.4578 437.344 72.6738 437.728C72.9018 438.112 73.0158 438.538 73.0158 439.006C73.0158 439.462 72.9018 439.882 72.6738 440.266C72.4578 440.65 72.1518 440.956 71.7558 441.184C71.3718 441.4 70.9458 441.508 70.4778 441.508ZM95.988 445H93.468L87.762 436.378V445H85.242V432.418H87.762L93.468 441.058V432.418H95.988V445ZM104.31 445.126C103.134 445.126 102.054 444.85 101.07 444.298C100.086 443.746 99.3063 442.984 98.7303 442.012C98.1543 441.028 97.8663 439.918 97.8663 438.682C97.8663 437.458 98.1543 436.36 98.7303 435.388C99.3063 434.404 100.086 433.636 101.07 433.084C102.054 432.532 103.134 432.256 104.31 432.256C105.498 432.256 106.578 432.532 107.55 433.084C108.534 433.636 109.308 434.404 109.872 435.388C110.448 436.36 110.736 437.458 110.736 438.682C110.736 439.918 110.448 441.028 109.872 442.012C109.308 442.984 108.534 443.746 107.55 444.298C106.566 444.85 105.486 445.126 104.31 445.126ZM104.31 442.876C105.066 442.876 105.732 442.708 106.308 442.372C106.884 442.024 107.334 441.532 107.658 440.896C107.982 440.26 108.144 439.522 108.144 438.682C108.144 437.842 107.982 437.11 107.658 436.486C107.334 435.85 106.884 435.364 106.308 435.028C105.732 434.692 105.066 434.524 104.31 434.524C103.554 434.524 102.882 434.692 102.294 435.028C101.718 435.364 101.268 435.85 100.944 436.486C100.62 437.11 100.458 437.842 100.458 438.682C100.458 439.522 100.62 440.26 100.944 440.896C101.268 441.532 101.718 442.024 102.294 442.372C102.882 442.708 103.554 442.876 104.31 442.876ZM121.238 445.126C120.362 445.126 119.57 444.976 118.862 444.676C118.166 444.376 117.614 443.944 117.206 443.38C116.798 442.816 116.588 442.15 116.576 441.382H119.276C119.312 441.898 119.492 442.306 119.816 442.606C120.152 442.906 120.608 443.056 121.184 443.056C121.772 443.056 122.234 442.918 122.57 442.642C122.906 442.354 123.074 441.982 123.074 441.526C123.074 441.154 122.96 440.848 122.732 440.608C122.504 440.368 122.216 440.182 121.868 440.05C121.532 439.906 121.064 439.75 120.464 439.582C119.648 439.342 118.982 439.108 118.466 438.88C117.962 438.64 117.524 438.286 117.152 437.818C116.792 437.338 116.612 436.702 116.612 435.91C116.612 435.166 116.798 434.518 117.17 433.966C117.542 433.414 118.064 432.994 118.736 432.706C119.408 432.406 120.176 432.256 121.04 432.256C122.336 432.256 123.386 432.574 124.19 433.21C125.006 433.834 125.456 434.71 125.54 435.838H122.768C122.744 435.406 122.558 435.052 122.21 434.776C121.874 434.488 121.424 434.344 120.86 434.344C120.368 434.344 119.972 434.47 119.672 434.722C119.384 434.974 119.24 435.34 119.24 435.82C119.24 436.156 119.348 436.438 119.564 436.666C119.792 436.882 120.068 437.062 120.392 437.206C120.728 437.338 121.196 437.494 121.796 437.674C122.612 437.914 123.278 438.154 123.794 438.394C124.31 438.634 124.754 438.994 125.126 439.474C125.498 439.954 125.684 440.584 125.684 441.364C125.684 442.036 125.51 442.66 125.162 443.236C124.814 443.812 124.304 444.274 123.632 444.622C122.96 444.958 122.162 445.126 121.238 445.126ZM130.389 432.436V445H127.869V432.436H130.389ZM141.627 436.216C141.339 435.688 140.943 435.286 140.439 435.01C139.935 434.734 139.347 434.596 138.675 434.596C137.931 434.596 137.271 434.764 136.695 435.1C136.119 435.436 135.669 435.916 135.345 436.54C135.021 437.164 134.859 437.884 134.859 438.7C134.859 439.54 135.021 440.272 135.345 440.896C135.681 441.52 136.143 442 136.731 442.336C137.319 442.672 138.003 442.84 138.783 442.84C139.743 442.84 140.529 442.588 141.141 442.084C141.753 441.568 142.155 440.854 142.347 439.942H138.027V438.016H144.831V440.212C144.663 441.088 144.303 441.898 143.751 442.642C143.199 443.386 142.485 443.986 141.609 444.442C140.745 444.886 139.773 445.108 138.693 445.108C137.481 445.108 136.383 444.838 135.399 444.298C134.427 443.746 133.659 442.984 133.095 442.012C132.543 441.04 132.267 439.936 132.267 438.7C132.267 437.464 132.543 436.36 133.095 435.388C133.659 434.404 134.427 433.642 135.399 433.102C136.383 432.55 137.475 432.274 138.675 432.274C140.091 432.274 141.321 432.622 142.365 433.318C143.409 434.002 144.129 434.968 144.525 436.216H141.627ZM157.441 445H154.921L149.215 436.378V445H146.695V432.418H149.215L154.921 441.058V432.418H157.441V445ZM166.705 432.436V440.212C166.705 441.064 166.927 441.718 167.371 442.174C167.815 442.618 168.439 442.84 169.243 442.84C170.059 442.84 170.689 442.618 171.133 442.174C171.577 441.718 171.799 441.064 171.799 440.212V432.436H174.337V440.194C174.337 441.262 174.103 442.168 173.635 442.912C173.179 443.644 172.561 444.196 171.781 444.568C171.013 444.94 170.155 445.126 169.207 445.126C168.271 445.126 167.419 444.94 166.651 444.568C165.895 444.196 165.295 443.644 164.851 442.912C164.407 442.168 164.185 441.262 164.185 440.194V432.436H166.705ZM185.933 436.324C185.933 436.996 185.771 437.626 185.447 438.214C185.135 438.802 184.637 439.276 183.953 439.636C183.281 439.996 182.429 440.176 181.397 440.176H179.291V445H176.771V432.436H181.397C182.369 432.436 183.197 432.604 183.881 432.94C184.565 433.276 185.075 433.738 185.411 434.326C185.759 434.914 185.933 435.58 185.933 436.324ZM181.289 438.142C181.985 438.142 182.501 437.986 182.837 437.674C183.173 437.35 183.341 436.9 183.341 436.324C183.341 435.1 182.657 434.488 181.289 434.488H179.291V438.142H181.289Z" fill="#F8B919"/>
<path d="M70.4778 468.508C70.0218 468.508 69.6018 468.4 69.2178 468.184C68.8338 467.956 68.5278 467.65 68.2998 467.266C68.0838 466.882 67.9758 466.462 67.9758 466.006C67.9758 465.538 68.0838 465.112 68.2998 464.728C68.5278 464.344 68.8338 464.044 69.2178 463.828C69.6018 463.6 70.0218 463.486 70.4778 463.486C70.9458 463.486 71.3718 463.6 71.7558 463.828C72.1518 464.044 72.4578 464.344 72.6738 464.728C72.9018 465.112 73.0158 465.538 73.0158 466.006C73.0158 466.462 72.9018 466.882 72.6738 467.266C72.4578 467.65 72.1518 467.956 71.7558 468.184C71.3718 468.4 70.9458 468.508 70.4778 468.508ZM84.63 465.7C84.63 464.464 84.906 463.36 85.458 462.388C86.022 461.404 86.784 460.642 87.744 460.102C88.716 459.55 89.802 459.274 91.002 459.274C92.406 459.274 93.636 459.634 94.692 460.354C95.748 461.074 96.486 462.07 96.906 463.342H94.008C93.72 462.742 93.312 462.292 92.784 461.992C92.268 461.692 91.668 461.542 90.984 461.542C90.252 461.542 89.598 461.716 89.022 462.064C88.458 462.4 88.014 462.88 87.69 463.504C87.378 464.128 87.222 464.86 87.222 465.7C87.222 466.528 87.378 467.26 87.69 467.896C88.014 468.52 88.458 469.006 89.022 469.354C89.598 469.69 90.252 469.858 90.984 469.858C91.668 469.858 92.268 469.708 92.784 469.408C93.312 469.096 93.72 468.64 94.008 468.04H96.906C96.486 469.324 95.748 470.326 94.692 471.046C93.648 471.754 92.418 472.108 91.002 472.108C89.802 472.108 88.716 471.838 87.744 471.298C86.784 470.746 86.022 469.984 85.458 469.012C84.906 468.04 84.63 466.936 84.63 465.7ZM104.89 472.126C103.714 472.126 102.634 471.85 101.65 471.298C100.666 470.746 99.8864 469.984 99.3104 469.012C98.7344 468.028 98.4464 466.918 98.4464 465.682C98.4464 464.458 98.7344 463.36 99.3104 462.388C99.8864 461.404 100.666 460.636 101.65 460.084C102.634 459.532 103.714 459.256 104.89 459.256C106.078 459.256 107.158 459.532 108.13 460.084C109.114 460.636 109.888 461.404 110.452 462.388C111.028 463.36 111.316 464.458 111.316 465.682C111.316 466.918 111.028 468.028 110.452 469.012C109.888 469.984 109.114 470.746 108.13 471.298C107.146 471.85 106.066 472.126 104.89 472.126ZM104.89 469.876C105.646 469.876 106.312 469.708 106.888 469.372C107.464 469.024 107.914 468.532 108.238 467.896C108.562 467.26 108.724 466.522 108.724 465.682C108.724 464.842 108.562 464.11 108.238 463.486C107.914 462.85 107.464 462.364 106.888 462.028C106.312 461.692 105.646 461.524 104.89 461.524C104.134 461.524 103.462 461.692 102.874 462.028C102.298 462.364 101.848 462.85 101.524 463.486C101.2 464.11 101.038 464.842 101.038 465.682C101.038 466.522 101.2 467.26 101.524 467.896C101.848 468.532 102.298 469.024 102.874 469.372C103.462 469.708 104.134 469.876 104.89 469.876ZM126.889 459.436V472H124.369V463.828L121.003 472H119.095L115.711 463.828V472H113.191V459.436H116.053L120.049 468.778L124.045 459.436H126.889ZM138.543 463.324C138.543 463.996 138.381 464.626 138.057 465.214C137.745 465.802 137.247 466.276 136.563 466.636C135.891 466.996 135.039 467.176 134.007 467.176H131.901V472H129.381V459.436H134.007C134.979 459.436 135.807 459.604 136.491 459.94C137.175 460.276 137.685 460.738 138.021 461.326C138.369 461.914 138.543 462.58 138.543 463.324ZM133.899 465.142C134.595 465.142 135.111 464.986 135.447 464.674C135.783 464.35 135.951 463.9 135.951 463.324C135.951 462.1 135.267 461.488 133.899 461.488H131.901V465.142H133.899ZM142.852 470.002H146.992V472H140.332V459.436H142.852V470.002ZM151.114 461.47V464.62H155.344V466.618H151.114V469.948H155.884V472H148.594V459.418H155.884V461.47H151.114ZM166.724 459.436V461.47H163.376V472H160.856V461.47H157.508V459.436H166.724ZM171.082 461.47V464.62H175.312V466.618H171.082V469.948H175.852V472H168.562V459.418H175.852V461.47H171.082ZM180.662 470.002H184.802V472H178.142V459.436H180.662V470.002ZM196.394 459.436L192.146 467.626V472H189.626V467.626L185.36 459.436H188.204L190.904 465.178L193.586 459.436H196.394ZM207.969 472.126C206.793 472.126 205.713 471.85 204.729 471.298C203.745 470.746 202.965 469.984 202.389 469.012C201.813 468.028 201.525 466.918 201.525 465.682C201.525 464.458 201.813 463.36 202.389 462.388C202.965 461.404 203.745 460.636 204.729 460.084C205.713 459.532 206.793 459.256 207.969 459.256C209.157 459.256 210.237 459.532 211.209 460.084C212.193 460.636 212.967 461.404 213.531 462.388C214.107 463.36 214.395 464.458 214.395 465.682C214.395 466.918 214.107 468.028 213.531 469.012C212.967 469.984 212.193 470.746 211.209 471.298C210.225 471.85 209.145 472.126 207.969 472.126ZM207.969 469.876C208.725 469.876 209.391 469.708 209.967 469.372C210.543 469.024 210.993 468.532 211.317 467.896C211.641 467.26 211.803 466.522 211.803 465.682C211.803 464.842 211.641 464.11 211.317 463.486C210.993 462.85 210.543 462.364 209.967 462.028C209.391 461.692 208.725 461.524 207.969 461.524C207.213 461.524 206.541 461.692 205.953 462.028C205.377 462.364 204.927 462.85 204.603 463.486C204.279 464.11 204.117 464.842 204.117 465.682C204.117 466.522 204.279 467.26 204.603 467.896C204.927 468.532 205.377 469.024 205.953 469.372C206.541 469.708 207.213 469.876 207.969 469.876ZM225.431 463.324C225.431 463.996 225.269 464.626 224.945 465.214C224.633 465.802 224.135 466.276 223.451 466.636C222.779 466.996 221.927 467.176 220.895 467.176H218.789V472H216.269V459.436H220.895C221.867 459.436 222.695 459.604 223.379 459.94C224.063 460.276 224.573 460.738 224.909 461.326C225.257 461.914 225.431 462.58 225.431 463.324ZM220.787 465.142C221.483 465.142 221.999 464.986 222.335 464.674C222.671 464.35 222.839 463.9 222.839 463.324C222.839 462.1 222.155 461.488 220.787 461.488H218.789V465.142H220.787ZM229.741 461.47V464.62H233.971V466.618H229.741V469.948H234.511V472H227.221V459.418H234.511V461.47H229.741ZM247.547 472H245.027L239.321 463.378V472H236.801V459.418H239.321L245.027 468.058V459.418H247.547V472ZM254.375 472.126C253.499 472.126 252.707 471.976 251.999 471.676C251.303 471.376 250.751 470.944 250.343 470.38C249.935 469.816 249.725 469.15 249.713 468.382H252.413C252.449 468.898 252.629 469.306 252.953 469.606C253.289 469.906 253.745 470.056 254.321 470.056C254.909 470.056 255.371 469.918 255.707 469.642C256.043 469.354 256.211 468.982 256.211 468.526C256.211 468.154 256.097 467.848 255.869 467.608C255.641 467.368 255.353 467.182 255.005 467.05C254.669 466.906 254.201 466.75 253.601 466.582C252.785 466.342 252.119 466.108 251.603 465.88C251.099 465.64 250.661 465.286 250.289 464.818C249.929 464.338 249.749 463.702 249.749 462.91C249.749 462.166 249.935 461.518 250.307 460.966C250.679 460.414 251.201 459.994 251.873 459.706C252.545 459.406 253.313 459.256 254.177 459.256C255.473 459.256 256.523 459.574 257.327 460.21C258.143 460.834 258.593 461.71 258.677 462.838H255.905C255.881 462.406 255.695 462.052 255.347 461.776C255.011 461.488 254.561 461.344 253.997 461.344C253.505 461.344 253.109 461.47 252.809 461.722C252.521 461.974 252.377 462.34 252.377 462.82C252.377 463.156 252.485 463.438 252.701 463.666C252.929 463.882 253.205 464.062 253.529 464.206C253.865 464.338 254.333 464.494 254.933 464.674C255.749 464.914 256.415 465.154 256.931 465.394C257.447 465.634 257.891 465.994 258.263 466.474C258.635 466.954 258.821 467.584 258.821 468.364C258.821 469.036 258.647 469.66 258.299 470.236C257.951 470.812 257.441 471.274 256.769 471.622C256.097 471.958 255.299 472.126 254.375 472.126ZM266.838 472.126C265.662 472.126 264.582 471.85 263.598 471.298C262.614 470.746 261.834 469.984 261.258 469.012C260.682 468.028 260.394 466.918 260.394 465.682C260.394 464.458 260.682 463.36 261.258 462.388C261.834 461.404 262.614 460.636 263.598 460.084C264.582 459.532 265.662 459.256 266.838 459.256C268.026 459.256 269.106 459.532 270.078 460.084C271.062 460.636 271.836 461.404 272.4 462.388C272.976 463.36 273.264 464.458 273.264 465.682C273.264 466.918 272.976 468.028 272.4 469.012C271.836 469.984 271.062 470.746 270.078 471.298C269.094 471.85 268.014 472.126 266.838 472.126ZM266.838 469.876C267.594 469.876 268.26 469.708 268.836 469.372C269.412 469.024 269.862 468.532 270.186 467.896C270.51 467.26 270.672 466.522 270.672 465.682C270.672 464.842 270.51 464.11 270.186 463.486C269.862 462.85 269.412 462.364 268.836 462.028C268.26 461.692 267.594 461.524 266.838 461.524C266.082 461.524 265.41 461.692 264.822 462.028C264.246 462.364 263.796 462.85 263.472 463.486C263.148 464.11 262.986 464.842 262.986 465.682C262.986 466.522 263.148 467.26 263.472 467.896C263.796 468.532 264.246 469.024 264.822 469.372C265.41 469.708 266.082 469.876 266.838 469.876ZM277.622 459.436V467.212C277.622 468.064 277.844 468.718 278.288 469.174C278.732 469.618 279.356 469.84 280.16 469.84C280.976 469.84 281.606 469.618 282.05 469.174C282.494 468.718 282.716 468.064 282.716 467.212V459.436H285.254V467.194C285.254 468.262 285.02 469.168 284.552 469.912C284.096 470.644 283.478 471.196 282.698 471.568C281.93 471.94 281.072 472.126 280.124 472.126C279.188 472.126 278.336 471.94 277.568 471.568C276.812 471.196 276.212 470.644 275.768 469.912C275.324 469.168 275.102 468.262 275.102 467.194V459.436H277.622ZM294.169 472L291.397 467.104H290.209V472H287.689V459.436H292.405C293.377 459.436 294.205 459.61 294.889 459.958C295.573 460.294 296.083 460.756 296.419 461.344C296.767 461.92 296.941 462.568 296.941 463.288C296.941 464.116 296.701 464.866 296.221 465.538C295.741 466.198 295.027 466.654 294.079 466.906L297.085 472H294.169ZM290.209 465.214H292.315C292.999 465.214 293.509 465.052 293.845 464.728C294.181 464.392 294.349 463.93 294.349 463.342C294.349 462.766 294.181 462.322 293.845 462.01C293.509 461.686 292.999 461.524 292.315 461.524H290.209V465.214ZM298.609 465.7C298.609 464.464 298.885 463.36 299.437 462.388C300.001 461.404 300.763 460.642 301.723 460.102C302.695 459.55 303.781 459.274 304.981 459.274C306.385 459.274 307.615 459.634 308.671 460.354C309.727 461.074 310.465 462.07 310.885 463.342H307.987C307.699 462.742 307.291 462.292 306.763 461.992C306.247 461.692 305.647 461.542 304.963 461.542C304.231 461.542 303.577 461.716 303.001 462.064C302.437 462.4 301.993 462.88 301.669 463.504C301.357 464.128 301.201 464.86 301.201 465.7C301.201 466.528 301.357 467.26 301.669 467.896C301.993 468.52 302.437 469.006 303.001 469.354C303.577 469.69 304.231 469.858 304.963 469.858C305.647 469.858 306.247 469.708 306.763 469.408C307.291 469.096 307.699 468.64 307.987 468.04H310.885C310.465 469.324 309.727 470.326 308.671 471.046C307.627 471.754 306.397 472.108 304.981 472.108C303.781 472.108 302.695 471.838 301.723 471.298C300.763 470.746 300.001 469.984 299.437 469.012C298.885 468.04 298.609 466.936 298.609 465.7ZM315.557 461.47V464.62H319.787V466.618H315.557V469.948H320.327V472H313.037V459.418H320.327V461.47H315.557Z" fill="#38A7E6"/>
<path d="M70.4778 495.508C70.0218 495.508 69.6018 495.4 69.2178 495.184C68.8338 494.956 68.5278 494.65 68.2998 494.266C68.0838 493.882 67.9758 493.462 67.9758 493.006C67.9758 492.538 68.0838 492.112 68.2998 491.728C68.5278 491.344 68.8338 491.044 69.2178 490.828C69.6018 490.6 70.0218 490.486 70.4778 490.486C70.9458 490.486 71.3718 490.6 71.7558 490.828C72.1518 491.044 72.4578 491.344 72.6738 491.728C72.9018 492.112 73.0158 492.538 73.0158 493.006C73.0158 493.462 72.9018 493.882 72.6738 494.266C72.4578 494.65 72.1518 494.956 71.7558 495.184C71.3718 495.4 70.9458 495.508 70.4778 495.508ZM95.232 486.436L90.984 494.626V499H88.464V494.626L84.198 486.436H87.042L89.742 492.178L92.424 486.436H95.232ZM102.517 499.126C101.341 499.126 100.261 498.85 99.2774 498.298C98.2934 497.746 97.5134 496.984 96.9374 496.012C96.3614 495.028 96.0734 493.918 96.0734 492.682C96.0734 491.458 96.3614 490.36 96.9374 489.388C97.5134 488.404 98.2934 487.636 99.2774 487.084C100.261 486.532 101.341 486.256 102.517 486.256C103.705 486.256 104.785 486.532 105.757 487.084C106.741 487.636 107.515 488.404 108.079 489.388C108.655 490.36 108.943 491.458 108.943 492.682C108.943 493.918 108.655 495.028 108.079 496.012C107.515 496.984 106.741 497.746 105.757 498.298C104.773 498.85 103.693 499.126 102.517 499.126ZM102.517 496.876C103.273 496.876 103.939 496.708 104.515 496.372C105.091 496.024 105.541 495.532 105.865 494.896C106.189 494.26 106.351 493.522 106.351 492.682C106.351 491.842 106.189 491.11 105.865 490.486C105.541 489.85 105.091 489.364 104.515 489.028C103.939 488.692 103.273 488.524 102.517 488.524C101.761 488.524 101.089 488.692 100.501 489.028C99.9254 489.364 99.4754 489.85 99.1514 490.486C98.8274 491.11 98.6654 491.842 98.6654 492.682C98.6654 493.522 98.8274 494.26 99.1514 494.896C99.4754 495.532 99.9254 496.024 100.501 496.372C101.089 496.708 101.761 496.876 102.517 496.876ZM113.302 486.436V494.212C113.302 495.064 113.524 495.718 113.968 496.174C114.412 496.618 115.036 496.84 115.84 496.84C116.656 496.84 117.286 496.618 117.73 496.174C118.174 495.718 118.396 495.064 118.396 494.212V486.436H120.934V494.194C120.934 495.262 120.7 496.168 120.232 496.912C119.776 497.644 119.158 498.196 118.378 498.568C117.61 498.94 116.752 499.126 115.804 499.126C114.868 499.126 114.016 498.94 113.248 498.568C112.492 498.196 111.892 497.644 111.448 496.912C111.004 496.168 110.782 495.262 110.782 494.194V486.436H113.302ZM135.362 496.606H130.358L129.53 499H126.884L131.402 486.418H134.336L138.854 499H136.19L135.362 496.606ZM134.678 494.59L132.86 489.334L131.042 494.59H134.678ZM147.023 499L144.251 494.104H143.063V499H140.543V486.436H145.259C146.231 486.436 147.059 486.61 147.743 486.958C148.427 487.294 148.937 487.756 149.273 488.344C149.621 488.92 149.795 489.568 149.795 490.288C149.795 491.116 149.555 491.866 149.075 492.538C148.595 493.198 147.881 493.654 146.933 493.906L149.939 499H147.023ZM143.063 492.214H145.169C145.853 492.214 146.363 492.052 146.699 491.728C147.035 491.392 147.203 490.93 147.203 490.342C147.203 489.766 147.035 489.322 146.699 489.01C146.363 488.686 145.853 488.524 145.169 488.524H143.063V492.214ZM154.594 488.47V491.62H158.824V493.618H154.594V496.948H159.364V499H152.074V486.418H159.364V488.47H154.594ZM168.463 486.436V499H165.943V486.436H168.463ZM181.699 499H179.179L173.473 490.378V499H170.953V486.418H173.473L179.179 495.058V486.418H181.699V499ZM187.866 492.7C187.866 491.464 188.142 490.36 188.694 489.388C189.258 488.404 190.02 487.642 190.98 487.102C191.952 486.55 193.038 486.274 194.238 486.274C195.642 486.274 196.872 486.634 197.928 487.354C198.984 488.074 199.722 489.07 200.142 490.342H197.244C196.956 489.742 196.548 489.292 196.02 488.992C195.504 488.692 194.904 488.542 194.22 488.542C193.488 488.542 192.834 488.716 192.258 489.064C191.694 489.4 191.25 489.88 190.926 490.504C190.614 491.128 190.458 491.86 190.458 492.7C190.458 493.528 190.614 494.26 190.926 494.896C191.25 495.52 191.694 496.006 192.258 496.354C192.834 496.69 193.488 496.858 194.22 496.858C194.904 496.858 195.504 496.708 196.02 496.408C196.548 496.096 196.956 495.64 197.244 495.04H200.142C199.722 496.324 198.984 497.326 197.928 498.046C196.884 498.754 195.654 499.108 194.238 499.108C193.038 499.108 191.952 498.838 190.98 498.298C190.02 497.746 189.258 496.984 188.694 496.012C188.142 495.04 187.866 493.936 187.866 492.7ZM208.127 499.126C206.951 499.126 205.871 498.85 204.887 498.298C203.903 497.746 203.123 496.984 202.547 496.012C201.971 495.028 201.683 493.918 201.683 492.682C201.683 491.458 201.971 490.36 202.547 489.388C203.123 488.404 203.903 487.636 204.887 487.084C205.871 486.532 206.951 486.256 208.127 486.256C209.315 486.256 210.395 486.532 211.367 487.084C212.351 487.636 213.125 488.404 213.689 489.388C214.265 490.36 214.553 491.458 214.553 492.682C214.553 493.918 214.265 495.028 213.689 496.012C213.125 496.984 212.351 497.746 211.367 498.298C210.383 498.85 209.303 499.126 208.127 499.126ZM208.127 496.876C208.883 496.876 209.549 496.708 210.125 496.372C210.701 496.024 211.151 495.532 211.475 494.896C211.799 494.26 211.961 493.522 211.961 492.682C211.961 491.842 211.799 491.11 211.475 490.486C211.151 489.85 210.701 489.364 210.125 489.028C209.549 488.692 208.883 488.524 208.127 488.524C207.371 488.524 206.699 488.692 206.111 489.028C205.535 489.364 205.085 489.85 204.761 490.486C204.437 491.11 204.275 491.842 204.275 492.682C204.275 493.522 204.437 494.26 204.761 494.896C205.085 495.532 205.535 496.024 206.111 496.372C206.699 496.708 207.371 496.876 208.127 496.876ZM227.174 499H224.654L218.948 490.378V499H216.428V486.418H218.948L224.654 495.058V486.418H227.174V499ZM238.214 486.436V488.47H234.866V499H232.346V488.47H228.998V486.436H238.214ZM246.533 499L243.761 494.104H242.573V499H240.053V486.436H244.769C245.741 486.436 246.569 486.61 247.253 486.958C247.937 487.294 248.447 487.756 248.783 488.344C249.131 488.92 249.305 489.568 249.305 490.288C249.305 491.116 249.065 491.866 248.585 492.538C248.105 493.198 247.391 493.654 246.443 493.906L249.449 499H246.533ZM242.573 492.214H244.679C245.363 492.214 245.873 492.052 246.209 491.728C246.545 491.392 246.713 490.93 246.713 490.342C246.713 489.766 246.545 489.322 246.209 489.01C245.873 488.686 245.363 488.524 244.679 488.524H242.573V492.214ZM257.416 499.126C256.24 499.126 255.16 498.85 254.176 498.298C253.192 497.746 252.412 496.984 251.836 496.012C251.26 495.028 250.972 493.918 250.972 492.682C250.972 491.458 251.26 490.36 251.836 489.388C252.412 488.404 253.192 487.636 254.176 487.084C255.16 486.532 256.24 486.256 257.416 486.256C258.604 486.256 259.684 486.532 260.656 487.084C261.64 487.636 262.414 488.404 262.978 489.388C263.554 490.36 263.842 491.458 263.842 492.682C263.842 493.918 263.554 495.028 262.978 496.012C262.414 496.984 261.64 497.746 260.656 498.298C259.672 498.85 258.592 499.126 257.416 499.126ZM257.416 496.876C258.172 496.876 258.838 496.708 259.414 496.372C259.99 496.024 260.44 495.532 260.764 494.896C261.088 494.26 261.25 493.522 261.25 492.682C261.25 491.842 261.088 491.11 260.764 490.486C260.44 489.85 259.99 489.364 259.414 489.028C258.838 488.692 258.172 488.524 257.416 488.524C256.66 488.524 255.988 488.692 255.4 489.028C254.824 489.364 254.374 489.85 254.05 490.486C253.726 491.11 253.564 491.842 253.564 492.682C253.564 493.522 253.726 494.26 254.05 494.896C254.374 495.532 254.824 496.024 255.4 496.372C255.988 496.708 256.66 496.876 257.416 496.876ZM268.237 497.002H272.377V499H265.717V486.436H268.237V497.002ZM284.099 499.126C282.923 499.126 281.843 498.85 280.859 498.298C279.875 497.746 279.095 496.984 278.519 496.012C277.943 495.028 277.655 493.918 277.655 492.682C277.655 491.458 277.943 490.36 278.519 489.388C279.095 488.404 279.875 487.636 280.859 487.084C281.843 486.532 282.923 486.256 284.099 486.256C285.287 486.256 286.367 486.532 287.339 487.084C288.323 487.636 289.097 488.404 289.661 489.388C290.237 490.36 290.525 491.458 290.525 492.682C290.525 493.918 290.237 495.028 289.661 496.012C289.097 496.984 288.323 497.746 287.339 498.298C286.355 498.85 285.275 499.126 284.099 499.126ZM284.099 496.876C284.855 496.876 285.521 496.708 286.097 496.372C286.673 496.024 287.123 495.532 287.447 494.896C287.771 494.26 287.933 493.522 287.933 492.682C287.933 491.842 287.771 491.11 287.447 490.486C287.123 489.85 286.673 489.364 286.097 489.028C285.521 488.692 284.855 488.524 284.099 488.524C283.343 488.524 282.671 488.692 282.083 489.028C281.507 489.364 281.057 489.85 280.733 490.486C280.409 491.11 280.247 491.842 280.247 492.682C280.247 493.522 280.409 494.26 280.733 494.896C281.057 495.532 281.507 496.024 282.083 496.372C282.671 496.708 283.343 496.876 284.099 496.876ZM300.158 486.436V488.47H294.92V491.692H298.934V493.69H294.92V499H292.4V486.436H300.158ZM95.232 513.436L90.984 521.626V526H88.464V521.626L84.198 513.436H87.042L89.742 519.178L92.424 513.436H95.232ZM102.517 526.126C101.341 526.126 100.261 525.85 99.2774 525.298C98.2934 524.746 97.5134 523.984 96.9374 523.012C96.3614 522.028 96.0734 520.918 96.0734 519.682C96.0734 518.458 96.3614 517.36 96.9374 516.388C97.5134 515.404 98.2934 514.636 99.2774 514.084C100.261 513.532 101.341 513.256 102.517 513.256C103.705 513.256 104.785 513.532 105.757 514.084C106.741 514.636 107.515 515.404 108.079 516.388C108.655 517.36 108.943 518.458 108.943 519.682C108.943 520.918 108.655 522.028 108.079 523.012C107.515 523.984 106.741 524.746 105.757 525.298C104.773 525.85 103.693 526.126 102.517 526.126ZM102.517 523.876C103.273 523.876 103.939 523.708 104.515 523.372C105.091 523.024 105.541 522.532 105.865 521.896C106.189 521.26 106.351 520.522 106.351 519.682C106.351 518.842 106.189 518.11 105.865 517.486C105.541 516.85 105.091 516.364 104.515 516.028C103.939 515.692 103.273 515.524 102.517 515.524C101.761 515.524 101.089 515.692 100.501 516.028C99.9254 516.364 99.4754 516.85 99.1514 517.486C98.8274 518.11 98.6654 518.842 98.6654 519.682C98.6654 520.522 98.8274 521.26 99.1514 521.896C99.4754 522.532 99.9254 523.024 100.501 523.372C101.089 523.708 101.761 523.876 102.517 523.876ZM113.302 513.436V521.212C113.302 522.064 113.524 522.718 113.968 523.174C114.412 523.618 115.036 523.84 115.84 523.84C116.656 523.84 117.286 523.618 117.73 523.174C118.174 522.718 118.396 522.064 118.396 521.212V513.436H120.934V521.194C120.934 522.262 120.7 523.168 120.232 523.912C119.776 524.644 119.158 525.196 118.378 525.568C117.61 525.94 116.752 526.126 115.804 526.126C114.868 526.126 114.016 525.94 113.248 525.568C112.492 525.196 111.892 524.644 111.448 523.912C111.004 523.168 110.782 522.262 110.782 521.194V513.436H113.302ZM129.849 526L127.077 521.104H125.889V526H123.369V513.436H128.085C129.057 513.436 129.885 513.61 130.569 513.958C131.253 514.294 131.763 514.756 132.099 515.344C132.447 515.92 132.621 516.568 132.621 517.288C132.621 518.116 132.381 518.866 131.901 519.538C131.421 520.198 130.707 520.654 129.759 520.906L132.765 526H129.849ZM125.889 519.214H127.995C128.679 519.214 129.189 519.052 129.525 518.728C129.861 518.392 130.029 517.93 130.029 517.342C130.029 516.766 129.861 516.322 129.525 516.01C129.189 515.686 128.679 515.524 127.995 515.524H125.889V519.214ZM143.581 513.436C144.901 513.436 146.059 513.694 147.055 514.21C148.063 514.726 148.837 515.464 149.377 516.424C149.929 517.372 150.205 518.476 150.205 519.736C150.205 520.996 149.929 522.1 149.377 523.048C148.837 523.984 148.063 524.71 147.055 525.226C146.059 525.742 144.901 526 143.581 526H139.189V513.436H143.581ZM143.491 523.858C144.811 523.858 145.831 523.498 146.551 522.778C147.271 522.058 147.631 521.044 147.631 519.736C147.631 518.428 147.271 517.408 146.551 516.676C145.831 515.932 144.811 515.56 143.491 515.56H141.709V523.858H143.491ZM159.796 523.606H154.792L153.964 526H151.318L155.836 513.418H158.77L163.288 526H160.624L159.796 523.606ZM159.112 521.59L157.294 516.334L155.476 521.59H159.112ZM173.526 513.436V515.47H170.178V526H167.658V515.47H164.31V513.436H173.526ZM183.069 523.606H178.065L177.237 526H174.591L179.109 513.418H182.043L186.561 526H183.897L183.069 523.606ZM182.385 521.59L180.567 516.334L178.749 521.59H182.385Z" fill="#695EE4"/>
<path d="M70.4778 549.508C70.0218 549.508 69.6018 549.4 69.2178 549.184C68.8338 548.956 68.5278 548.65 68.2998 548.266C68.0838 547.882 67.9758 547.462 67.9758 547.006C67.9758 546.538 68.0838 546.112 68.2998 545.728C68.5278 545.344 68.8338 545.044 69.2178 544.828C69.6018 544.6 70.0218 544.486 70.4778 544.486C70.9458 544.486 71.3718 544.6 71.7558 544.828C72.1518 545.044 72.4578 545.344 72.6738 545.728C72.9018 546.112 73.0158 546.538 73.0158 547.006C73.0158 547.462 72.9018 547.882 72.6738 548.266C72.4578 548.65 72.1518 548.956 71.7558 549.184C71.3718 549.4 70.9458 549.508 70.4778 549.508ZM91.722 553L88.95 548.104H87.762V553H85.242V540.436H89.958C90.93 540.436 91.758 540.61 92.442 540.958C93.126 541.294 93.636 541.756 93.972 542.344C94.32 542.92 94.494 543.568 94.494 544.288C94.494 545.116 94.254 545.866 93.774 546.538C93.294 547.198 92.58 547.654 91.632 547.906L94.638 553H91.722ZM87.762 546.214H89.868C90.552 546.214 91.062 546.052 91.398 545.728C91.734 545.392 91.902 544.93 91.902 544.342C91.902 543.766 91.734 543.322 91.398 543.01C91.062 542.686 90.552 542.524 89.868 542.524H87.762V546.214ZM99.2933 542.47V545.62H103.523V547.618H99.2933V550.948H104.063V553H96.7733V540.418H104.063V542.47H99.2933ZM108.873 551.002H113.013V553H106.353V540.436H108.873V551.002ZM117.135 540.436V553H114.615V540.436H117.135ZM127.329 550.606H122.325L121.497 553H118.851L123.369 540.418H126.303L130.821 553H128.157L127.329 550.606ZM126.645 548.59L124.827 543.334L123.009 548.59H126.645ZM139.638 546.556C140.346 546.688 140.928 547.042 141.384 547.618C141.84 548.194 142.068 548.854 142.068 549.598C142.068 550.27 141.9 550.864 141.564 551.38C141.24 551.884 140.766 552.28 140.142 552.568C139.518 552.856 138.78 553 137.928 553H132.51V540.436H137.694C138.546 540.436 139.278 540.574 139.89 540.85C140.514 541.126 140.982 541.51 141.294 542.002C141.618 542.494 141.78 543.052 141.78 543.676C141.78 544.408 141.582 545.02 141.186 545.512C140.802 546.004 140.286 546.352 139.638 546.556ZM135.03 545.62H137.334C137.934 545.62 138.396 545.488 138.72 545.224C139.044 544.948 139.206 544.558 139.206 544.054C139.206 543.55 139.044 543.16 138.72 542.884C138.396 542.608 137.934 542.47 137.334 542.47H135.03V545.62ZM137.568 550.948C138.18 550.948 138.654 550.804 138.99 550.516C139.338 550.228 139.512 549.82 139.512 549.292C139.512 548.752 139.332 548.332 138.972 548.032C138.612 547.72 138.126 547.564 137.514 547.564H135.03V550.948H137.568ZM146.596 551.002H150.736V553H144.076V540.436H146.596V551.002ZM154.858 542.47V545.62H159.088V547.618H154.858V550.948H159.628V553H152.338V540.418H159.628V542.47H154.858ZM174.757 540.436V542.47H171.409V553H168.889V542.47H165.541V540.436H174.757ZM179.116 542.47V545.62H183.346V547.618H179.116V550.948H183.886V553H176.596V540.418H183.886V542.47H179.116ZM199.874 540.436V553H197.354V544.828L193.988 553H192.08L188.696 544.828V553H186.176V540.436H189.038L193.034 549.778L197.03 540.436H199.874ZM211.527 544.324C211.527 544.996 211.365 545.626 211.041 546.214C210.729 546.802 210.231 547.276 209.547 547.636C208.875 547.996 208.023 548.176 206.991 548.176H204.885V553H202.365V540.436H206.991C207.963 540.436 208.791 540.604 209.475 540.94C210.159 541.276 210.669 541.738 211.005 542.326C211.353 542.914 211.527 543.58 211.527 544.324ZM206.883 546.142C207.579 546.142 208.095 545.986 208.431 545.674C208.767 545.35 208.935 544.9 208.935 544.324C208.935 543.1 208.251 542.488 206.883 542.488H204.885V546.142H206.883ZM219.148 553.126C217.972 553.126 216.892 552.85 215.908 552.298C214.924 551.746 214.144 550.984 213.568 550.012C212.992 549.028 212.704 547.918 212.704 546.682C212.704 545.458 212.992 544.36 213.568 543.388C214.144 542.404 214.924 541.636 215.908 541.084C216.892 540.532 217.972 540.256 219.148 540.256C220.336 540.256 221.416 540.532 222.388 541.084C223.372 541.636 224.146 542.404 224.71 543.388C225.286 544.36 225.574 545.458 225.574 546.682C225.574 547.918 225.286 549.028 224.71 550.012C224.146 550.984 223.372 551.746 222.388 552.298C221.404 552.85 220.324 553.126 219.148 553.126ZM219.148 550.876C219.904 550.876 220.57 550.708 221.146 550.372C221.722 550.024 222.172 549.532 222.496 548.896C222.82 548.26 222.982 547.522 222.982 546.682C222.982 545.842 222.82 545.11 222.496 544.486C222.172 543.85 221.722 543.364 221.146 543.028C220.57 542.692 219.904 542.524 219.148 542.524C218.392 542.524 217.72 542.692 217.132 543.028C216.556 543.364 216.106 543.85 215.782 544.486C215.458 545.11 215.296 545.842 215.296 546.682C215.296 547.522 215.458 548.26 215.782 548.896C216.106 549.532 216.556 550.024 217.132 550.372C217.72 550.708 218.392 550.876 219.148 550.876ZM233.929 553L231.157 548.104H229.969V553H227.449V540.436H232.165C233.137 540.436 233.965 540.61 234.649 540.958C235.333 541.294 235.843 541.756 236.179 542.344C236.527 542.92 236.701 543.568 236.701 544.288C236.701 545.116 236.461 545.866 235.981 546.538C235.501 547.198 234.787 547.654 233.839 547.906L236.845 553H233.929ZM229.969 546.214H232.075C232.759 546.214 233.269 546.052 233.605 545.728C233.941 545.392 234.109 544.93 234.109 544.342C234.109 543.766 233.941 543.322 233.605 543.01C233.269 542.686 232.759 542.524 232.075 542.524H229.969V546.214ZM246.684 550.606H241.68L240.852 553H238.206L242.724 540.418H245.658L250.176 553H247.512L246.684 550.606ZM246 548.59L244.182 543.334L242.364 548.59H246ZM258.345 553L255.573 548.104H254.385V553H251.865V540.436H256.581C257.553 540.436 258.381 540.61 259.065 540.958C259.749 541.294 260.259 541.756 260.595 542.344C260.943 542.92 261.117 543.568 261.117 544.288C261.117 545.116 260.877 545.866 260.397 546.538C259.917 547.198 259.203 547.654 258.255 547.906L261.261 553H258.345ZM254.385 546.214H256.491C257.175 546.214 257.685 546.052 258.021 545.728C258.357 545.392 258.525 544.93 258.525 544.342C258.525 543.766 258.357 543.322 258.021 543.01C257.685 542.686 257.175 542.524 256.491 542.524H254.385V546.214ZM273.386 540.436L269.138 548.626V553H266.618V548.626L262.352 540.436H265.196L267.896 546.178L270.578 540.436H273.386ZM84.63 573.7C84.63 572.464 84.906 571.36 85.458 570.388C86.022 569.404 86.784 568.642 87.744 568.102C88.716 567.55 89.802 567.274 91.002 567.274C92.406 567.274 93.636 567.634 94.692 568.354C95.748 569.074 96.486 570.07 96.906 571.342H94.008C93.72 570.742 93.312 570.292 92.784 569.992C92.268 569.692 91.668 569.542 90.984 569.542C90.252 569.542 89.598 569.716 89.022 570.064C88.458 570.4 88.014 570.88 87.69 571.504C87.378 572.128 87.222 572.86 87.222 573.7C87.222 574.528 87.378 575.26 87.69 575.896C88.014 576.52 88.458 577.006 89.022 577.354C89.598 577.69 90.252 577.858 90.984 577.858C91.668 577.858 92.268 577.708 92.784 577.408C93.312 577.096 93.72 576.64 94.008 576.04H96.906C96.486 577.324 95.748 578.326 94.692 579.046C93.648 579.754 92.418 580.108 91.002 580.108C89.802 580.108 88.716 579.838 87.744 579.298C86.784 578.746 86.022 577.984 85.458 577.012C84.906 576.04 84.63 574.936 84.63 573.7ZM109.48 567.436V580H106.96V574.654H101.578V580H99.0584V567.436H101.578V572.602H106.96V567.436H109.48ZM119.665 577.606H114.661L113.833 580H111.187L115.705 567.418H118.639L123.157 580H120.493L119.665 577.606ZM118.981 575.59L117.163 570.334L115.345 575.59H118.981ZM133.396 567.436V569.47H130.048V580H127.528V569.47H124.18V567.436H133.396ZM141.714 580L138.942 575.104H137.754V580H135.234V567.436H139.95C140.922 567.436 141.75 567.61 142.434 567.958C143.118 568.294 143.628 568.756 143.964 569.344C144.312 569.92 144.486 570.568 144.486 571.288C144.486 572.116 144.246 572.866 143.766 573.538C143.286 574.198 142.572 574.654 141.624 574.906L144.63 580H141.714ZM137.754 573.214H139.86C140.544 573.214 141.054 573.052 141.39 572.728C141.726 572.392 141.894 571.93 141.894 571.342C141.894 570.766 141.726 570.322 141.39 570.01C141.054 569.686 140.544 569.524 139.86 569.524H137.754V573.214ZM152.597 580.126C151.421 580.126 150.341 579.85 149.357 579.298C148.373 578.746 147.593 577.984 147.017 577.012C146.441 576.028 146.153 574.918 146.153 573.682C146.153 572.458 146.441 571.36 147.017 570.388C147.593 569.404 148.373 568.636 149.357 568.084C150.341 567.532 151.421 567.256 152.597 567.256C153.785 567.256 154.865 567.532 155.837 568.084C156.821 568.636 157.595 569.404 158.159 570.388C158.735 571.36 159.023 572.458 159.023 573.682C159.023 574.918 158.735 576.028 158.159 577.012C157.595 577.984 156.821 578.746 155.837 579.298C154.853 579.85 153.773 580.126 152.597 580.126ZM152.597 577.876C153.353 577.876 154.019 577.708 154.595 577.372C155.171 577.024 155.621 576.532 155.945 575.896C156.269 575.26 156.431 574.522 156.431 573.682C156.431 572.842 156.269 572.11 155.945 571.486C155.621 570.85 155.171 570.364 154.595 570.028C154.019 569.692 153.353 569.524 152.597 569.524C151.841 569.524 151.169 569.692 150.581 570.028C150.005 570.364 149.555 570.85 149.231 571.486C148.907 572.11 148.745 572.842 148.745 573.682C148.745 574.522 148.907 575.26 149.231 575.896C149.555 576.532 150.005 577.024 150.581 577.372C151.169 577.708 151.841 577.876 152.597 577.876ZM166.73 580.126C165.554 580.126 164.474 579.85 163.49 579.298C162.506 578.746 161.726 577.984 161.15 577.012C160.574 576.028 160.286 574.918 160.286 573.682C160.286 572.458 160.574 571.36 161.15 570.388C161.726 569.404 162.506 568.636 163.49 568.084C164.474 567.532 165.554 567.256 166.73 567.256C167.918 567.256 168.998 567.532 169.97 568.084C170.954 568.636 171.728 569.404 172.292 570.388C172.868 571.36 173.156 572.458 173.156 573.682C173.156 574.918 172.868 576.028 172.292 577.012C171.728 577.984 170.954 578.746 169.97 579.298C168.986 579.85 167.906 580.126 166.73 580.126ZM166.73 577.876C167.486 577.876 168.152 577.708 168.728 577.372C169.304 577.024 169.754 576.532 170.078 575.896C170.402 575.26 170.564 574.522 170.564 573.682C170.564 572.842 170.402 572.11 170.078 571.486C169.754 570.85 169.304 570.364 168.728 570.028C168.152 569.692 167.486 569.524 166.73 569.524C165.974 569.524 165.302 569.692 164.714 570.028C164.138 570.364 163.688 570.85 163.364 571.486C163.04 572.11 162.878 572.842 162.878 573.682C162.878 574.522 163.04 575.26 163.364 575.896C163.688 576.532 164.138 577.024 164.714 577.372C165.302 577.708 165.974 577.876 166.73 577.876ZM188.729 567.436V580H186.209V571.828L182.843 580H180.935L177.551 571.828V580H175.031V567.436H177.893L181.889 576.778L185.885 567.436H188.729ZM195.559 580.126C194.683 580.126 193.891 579.976 193.183 579.676C192.487 579.376 191.935 578.944 191.527 578.38C191.119 577.816 190.909 577.15 190.897 576.382H193.597C193.633 576.898 193.813 577.306 194.137 577.606C194.473 577.906 194.929 578.056 195.505 578.056C196.093 578.056 196.555 577.918 196.891 577.642C197.227 577.354 197.395 576.982 197.395 576.526C197.395 576.154 197.281 575.848 197.053 575.608C196.825 575.368 196.537 575.182 196.189 575.05C195.853 574.906 195.385 574.75 194.785 574.582C193.969 574.342 193.303 574.108 192.787 573.88C192.283 573.64 191.845 573.286 191.473 572.818C191.113 572.338 190.933 571.702 190.933 570.91C190.933 570.166 191.119 569.518 191.491 568.966C191.863 568.414 192.385 567.994 193.057 567.706C193.729 567.406 194.497 567.256 195.361 567.256C196.657 567.256 197.707 567.574 198.511 568.21C199.327 568.834 199.777 569.71 199.861 570.838H197.089C197.065 570.406 196.879 570.052 196.531 569.776C196.195 569.488 195.745 569.344 195.181 569.344C194.689 569.344 194.293 569.47 193.993 569.722C193.705 569.974 193.561 570.34 193.561 570.82C193.561 571.156 193.669 571.438 193.885 571.666C194.113 571.882 194.389 572.062 194.713 572.206C195.049 572.338 195.517 572.494 196.117 572.674C196.933 572.914 197.599 573.154 198.115 573.394C198.631 573.634 199.075 573.994 199.447 574.474C199.819 574.954 200.005 575.584 200.005 576.364C200.005 577.036 199.831 577.66 199.483 578.236C199.135 578.812 198.625 579.274 197.953 579.622C197.281 579.958 196.483 580.126 195.559 580.126Z" fill="#33C47E"/>
<path d="M107.328 330.872V356H102.288V345.308H91.524V356H86.484V330.872H91.524V341.204H102.288V330.872H107.328ZM110.993 345.956C110.993 343.94 111.389 342.152 112.181 340.592C112.997 339.032 114.089 337.832 115.457 336.992C116.849 336.152 118.397 335.732 120.101 335.732C121.589 335.732 122.885 336.032 123.989 336.632C125.117 337.232 126.017 337.988 126.689 338.9V336.056H131.765V356H126.689V353.084C126.041 354.02 125.141 354.8 123.989 355.424C122.861 356.024 121.553 356.324 120.065 356.324C118.385 356.324 116.849 355.892 115.457 355.028C114.089 354.164 112.997 352.952 112.181 351.392C111.389 349.808 110.993 347.996 110.993 345.956ZM126.689 346.028C126.689 344.804 126.449 343.76 125.969 342.896C125.489 342.008 124.841 341.336 124.025 340.88C123.209 340.4 122.333 340.16 121.397 340.16C120.461 340.16 119.597 340.388 118.805 340.844C118.013 341.3 117.365 341.972 116.861 342.86C116.381 343.724 116.141 344.756 116.141 345.956C116.141 347.156 116.381 348.212 116.861 349.124C117.365 350.012 118.013 350.696 118.805 351.176C119.621 351.656 120.485 351.896 121.397 351.896C122.333 351.896 123.209 351.668 124.025 351.212C124.841 350.732 125.489 350.06 125.969 349.196C126.449 348.308 126.689 347.252 126.689 346.028ZM148.495 356L141.727 347.504V356H136.687V329.36H141.727V344.516L148.423 336.056H154.975L146.191 346.064L155.047 356H148.495ZM176.251 345.596C176.251 346.316 176.203 346.964 176.107 347.54H161.527C161.647 348.98 162.151 350.108 163.039 350.924C163.927 351.74 165.019 352.148 166.315 352.148C168.187 352.148 169.519 351.344 170.311 349.736H175.747C175.171 351.656 174.067 353.24 172.435 354.488C170.803 355.712 168.799 356.324 166.423 356.324C164.503 356.324 162.775 355.904 161.239 355.064C159.727 354.2 158.539 352.988 157.675 351.428C156.835 349.868 156.415 348.068 156.415 346.028C156.415 343.964 156.835 342.152 157.675 340.592C158.515 339.032 159.691 337.832 161.203 336.992C162.715 336.152 164.455 335.732 166.423 335.732C168.319 335.732 170.011 336.14 171.499 336.956C173.011 337.772 174.175 338.936 174.991 340.448C175.831 341.936 176.251 343.652 176.251 345.596ZM171.031 344.156C171.007 342.86 170.539 341.828 169.627 341.06C168.715 340.268 167.599 339.872 166.279 339.872C165.031 339.872 163.975 340.256 163.111 341.024C162.271 341.768 161.755 342.812 161.563 344.156H171.031ZM184.969 339.152C185.617 338.096 186.457 337.268 187.489 336.668C188.545 336.068 189.745 335.768 191.089 335.768V341.06H189.757C188.173 341.06 186.973 341.432 186.157 342.176C185.365 342.92 184.969 344.216 184.969 346.064V356H179.929V336.056H184.969V339.152ZM202.116 356.324C200.484 356.324 199.02 356.036 197.724 355.46C196.428 354.86 195.396 354.056 194.628 353.048C193.884 352.04 193.476 350.924 193.404 349.7H198.48C198.576 350.468 198.948 351.104 199.596 351.608C200.268 352.112 201.096 352.364 202.08 352.364C203.04 352.364 203.784 352.172 204.312 351.788C204.864 351.404 205.14 350.912 205.14 350.312C205.14 349.664 204.804 349.184 204.132 348.872C203.484 348.536 202.44 348.176 201 347.792C199.512 347.432 198.288 347.06 197.328 346.676C196.392 346.292 195.576 345.704 194.88 344.912C194.208 344.12 193.872 343.052 193.872 341.708C193.872 340.604 194.184 339.596 194.808 338.684C195.456 337.772 196.368 337.052 197.544 336.524C198.744 335.996 200.148 335.732 201.756 335.732C204.132 335.732 206.028 336.332 207.444 337.532C208.86 338.708 209.64 340.304 209.784 342.32H204.96C204.888 341.528 204.552 340.904 203.952 340.448C203.376 339.968 202.596 339.728 201.612 339.728C200.7 339.728 199.992 339.896 199.488 340.232C199.008 340.568 198.768 341.036 198.768 341.636C198.768 342.308 199.104 342.824 199.776 343.184C200.448 343.52 201.492 343.868 202.908 344.228C204.348 344.588 205.536 344.96 206.472 345.344C207.408 345.728 208.212 346.328 208.884 347.144C209.58 347.936 209.94 348.992 209.964 350.312C209.964 351.464 209.64 352.496 208.992 353.408C208.368 354.32 207.456 355.04 206.256 355.568C205.08 356.072 203.7 356.324 202.116 356.324ZM219.141 338.936C219.789 338.024 220.677 337.268 221.805 336.668C222.957 336.044 224.265 335.732 225.729 335.732C227.433 335.732 228.969 336.152 230.337 336.992C231.729 337.832 232.821 339.032 233.613 340.592C234.429 342.128 234.837 343.916 234.837 345.956C234.837 347.996 234.429 349.808 233.613 351.392C232.821 352.952 231.729 354.164 230.337 355.028C228.969 355.892 227.433 356.324 225.729 356.324C224.265 356.324 222.969 356.024 221.841 355.424C220.737 354.824 219.837 354.068 219.141 353.156V365.504H214.101V336.056H219.141V338.936ZM229.689 345.956C229.689 344.756 229.437 343.724 228.933 342.86C228.453 341.972 227.805 341.3 226.989 340.844C226.197 340.388 225.333 340.16 224.397 340.16C223.485 340.16 222.621 340.4 221.805 340.88C221.013 341.336 220.365 342.008 219.861 342.896C219.381 343.784 219.141 344.828 219.141 346.028C219.141 347.228 219.381 348.272 219.861 349.16C220.365 350.048 221.013 350.732 221.805 351.212C222.621 351.668 223.485 351.896 224.397 351.896C225.333 351.896 226.197 351.656 226.989 351.176C227.805 350.696 228.453 350.012 228.933 349.124C229.437 348.236 229.689 347.18 229.689 345.956ZM237.204 345.956C237.204 343.94 237.6 342.152 238.392 340.592C239.208 339.032 240.3 337.832 241.668 336.992C243.06 336.152 244.608 335.732 246.312 335.732C247.8 335.732 249.096 336.032 250.2 336.632C251.328 337.232 252.228 337.988 252.9 338.9V336.056H257.976V356H252.9V353.084C252.252 354.02 251.352 354.8 250.2 355.424C249.072 356.024 247.764 356.324 246.276 356.324C244.596 356.324 243.06 355.892 241.668 355.028C240.3 354.164 239.208 352.952 238.392 351.392C237.6 349.808 237.204 347.996 237.204 345.956ZM252.9 346.028C252.9 344.804 252.66 343.76 252.18 342.896C251.7 342.008 251.052 341.336 250.236 340.88C249.42 340.4 248.544 340.16 247.608 340.16C246.672 340.16 245.808 340.388 245.016 340.844C244.224 341.3 243.576 341.972 243.072 342.86C242.592 343.724 242.352 344.756 242.352 345.956C242.352 347.156 242.592 348.212 243.072 349.124C243.576 350.012 244.224 350.696 245.016 351.176C245.832 351.656 246.696 351.896 247.608 351.896C248.544 351.896 249.42 351.668 250.236 351.212C251.052 350.732 251.7 350.06 252.18 349.196C252.66 348.308 252.9 347.252 252.9 346.028ZM261.602 346.028C261.602 343.964 262.022 342.164 262.862 340.628C263.702 339.068 264.866 337.868 266.354 337.028C267.842 336.164 269.546 335.732 271.466 335.732C273.938 335.732 275.978 336.356 277.586 337.604C279.218 338.828 280.31 340.556 280.862 342.788H275.426C275.138 341.924 274.646 341.252 273.95 340.772C273.278 340.268 272.438 340.016 271.43 340.016C269.99 340.016 268.85 340.544 268.01 341.6C267.17 342.632 266.75 344.108 266.75 346.028C266.75 347.924 267.17 349.4 268.01 350.456C268.85 351.488 269.99 352.004 271.43 352.004C273.47 352.004 274.802 351.092 275.426 349.268H280.862C280.31 351.428 279.218 353.144 277.586 354.416C275.954 355.688 273.914 356.324 271.466 356.324C269.546 356.324 267.842 355.904 266.354 355.064C264.866 354.2 263.702 353 262.862 351.464C262.022 349.904 261.602 348.092 261.602 346.028ZM303.094 345.596C303.094 346.316 303.046 346.964 302.95 347.54H288.37C288.49 348.98 288.994 350.108 289.882 350.924C290.77 351.74 291.862 352.148 293.158 352.148C295.03 352.148 296.362 351.344 297.154 349.736H302.59C302.014 351.656 300.91 353.24 299.278 354.488C297.646 355.712 295.642 356.324 293.266 356.324C291.346 356.324 289.618 355.904 288.082 355.064C286.57 354.2 285.382 352.988 284.518 351.428C283.678 349.868 283.258 348.068 283.258 346.028C283.258 343.964 283.678 342.152 284.518 340.592C285.358 339.032 286.534 337.832 288.046 336.992C289.558 336.152 291.298 335.732 293.266 335.732C295.162 335.732 296.854 336.14 298.342 336.956C299.854 337.772 301.018 338.936 301.834 340.448C302.674 341.936 303.094 343.652 303.094 345.596ZM297.874 344.156C297.85 342.86 297.382 341.828 296.47 341.06C295.558 340.268 294.442 339.872 293.122 339.872C291.874 339.872 290.818 340.256 289.954 341.024C289.114 341.768 288.598 342.812 288.406 344.156H297.874Z" fill="black"/>
</svg>
